<svg xmlns="http://www.w3.org/2000/svg" viewBox="0 0 1200 630" role="img" aria-label="Matchboxd share preview">
  <defs>
    <linearGradient id="bg" x1="0" y1="0" x2="1" y2="1">
      <stop offset="0" stop-color="#131620"/>
      <stop offset="1" stop-color="#08090c"/>
    </linearGradient>
    <radialGradient id="glow-left" cx="20%" cy="25%" r="40%">
      <stop offset="0" stop-color="#ec4899" stop-opacity="0.18"/>
      <stop offset="1" stop-color="#ec4899" stop-opacity="0"/>
    </radialGradient>
    <radialGradient id="glow-right" cx="80%" cy="75%" r="35%">
      <stop offset="0" stop-color="#f9a8d4" stop-opacity="0.14"/>
      <stop offset="1" stop-color="#f9a8d4" stop-opacity="0"/>
    </radialGradient>
    <linearGradient id="card" x1="0" y1="0" x2="1" y2="1">
      <stop offset="0" stop-color="#161925"/>
      <stop offset="1" stop-color="#0b0d12"/>
    </linearGradient>
    <radialGradient id="icon-glow" cx="50%" cy="50%" r="60%">
      <stop offset="0" stop-color="#ec4899" stop-opacity="0.22"/>
      <stop offset="1" stop-color="#ec4899" stop-opacity="0"/>
    </radialGradient>
  </defs>

  <rect width="1200" height="630" fill="url(#bg)"/>
  <rect width="1200" height="630" fill="url(#glow-left)"/>
  <rect width="1200" height="630" fill="url(#glow-right)"/>

  <g transform="translate(132 145)">
    <rect x="0" y="0" width="170" height="170" rx="38" fill="url(#card)"/>
    <rect x="0.5" y="0.5" width="169" height="169" rx="37.5" fill="none" stroke="#ec4899" stroke-width="1.5" stroke-opacity="0.42"/>
    <ellipse cx="85" cy="85" rx="70" ry="54" fill="url(#icon-glow)"/>
    <rect x="28" y="48" width="114" height="74" rx="10" fill="none" stroke="#ec4899" stroke-width="4.5" stroke-opacity="0.72"/>
    <circle cx="69" cy="85" r="20" fill="#ec4899" fill-opacity="0.50"/>
    <circle cx="101" cy="85" r="20" fill="#ec4899" fill-opacity="0.28"/>
    <path d="M 85 65.51 A 20 20 0 0 1 85 104.49 A 20 20 0 0 1 85 65.51 Z" fill="#ec4899" fill-opacity="0.80"/>
  </g>

  <g transform="translate(352 170)">
    <text x="0" y="112" font-family="Georgia, 'Times New Roman', serif" font-size="110" font-weight="400" letter-spacing="-2" fill="#f4f6fb">Matchboxd</text>
    <text x="0" y="186" font-family="Inter, Arial, sans-serif" font-size="28" font-weight="600" letter-spacing="4.2" fill="#f9a8d4">STOP SCROLLING. START WATCHING.</text>
    <text x="0" y="270" font-family="Inter, Arial, sans-serif" font-size="42" font-weight="500" fill="#e5e8f2">Movies you both want to watch,</text>
    <text x="0" y="322" font-family="Inter, Arial, sans-serif" font-size="42" font-weight="500" fill="#e5e8f2">with ratings and where to stream.</text>
    <text x="0" y="405" font-family="Inter, Arial, sans-serif" font-size="24" font-weight="500" fill="#9ca3af">matchboxd.com</text>
  </g>
</svg>
