<svg xmlns="http://www.w3.org/2000/svg" viewBox="0 0 1200 630" role="img" aria-label="Matchboxd share preview">
  <defs>
    <linearGradient id="bg" x1="0" y1="0" x2="1" y2="1">
      <stop offset="0" stop-color="#131620"/>
      <stop offset="1" stop-color="#08090c"/>
    </linearGradient>
    <radialGradient id="glow-left" cx="20%" cy="25%" r="40%">
      <stop offset="0" stop-color="#ec4899" stop-opacity="0.18"/>
      <stop offset="1" stop-color="#ec4899" stop-opacity="0"/>
    </radialGradient>
    <radialGradient id="glow-right" cx="80%" cy="75%" r="35%">
      <stop offset="0" stop-color="#f9a8d4" stop-opacity="0.14"/>
      <stop offset="1" stop-color="#f9a8d4" stop-opacity="0"/>
    </radialGradient>
    <linearGradient id="card" x1="0" y1="0" x2="1" y2="1">
      <stop offset="0" stop-color="#161925"/>
      <stop offset="1" stop-color="#0b0d12"/>
    </linearGradient>
    <radialGradient id="icon-glow" cx="50%" cy="50%" r="60%">
      <stop offset="0" stop-color="#ec4899" stop-opacity="0.22"/>
      <stop offset="1" stop-color="#ec4899" stop-opacity="0"/>
    </radialGradient>
  </defs>

  <rect width="1200" height="630" fill="url(#bg)"/>
  <rect width="1200" height="630" fill="url(#glow-left)"/>
  <rect width="1200" height="630" fill="url(#glow-right)"/>

  <g transform="translate(96 120)">
    <rect x="0" y="0" width="210" height="210" rx="46" fill="url(#card)"/>
    <rect x="0.5" y="0.5" width="209" height="209" rx="45.5" fill="none" stroke="#ec4899" stroke-width="1.5" stroke-opacity="0.42"/>
    <ellipse cx="105" cy="105" rx="84" ry="64" fill="url(#icon-glow)"/>
    <rect x="35" y="59" width="140" height="92" rx="12" fill="none" stroke="#ec4899" stroke-width="5" stroke-opacity="0.72"/>
    <circle cx="85" cy="105" r="24" fill="#ec4899" fill-opacity="0.50"/>
    <circle cx="125" cy="105" r="24" fill="#ec4899" fill-opacity="0.28"/>
    <path d="M 105 81 A 24 24 0 0 1 105 129 A 24 24 0 0 1 105 81 Z" fill="#ec4899" fill-opacity="0.80"/>
  </g>

  <g transform="translate(356 142)">
    <text x="0" y="122" font-family="Georgia, 'Times New Roman', serif" font-size="124" font-weight="400" letter-spacing="-2.4" fill="#f4f6fb">Matchboxd</text>
    <text x="0" y="204" font-family="Inter, Arial, sans-serif" font-size="31" font-weight="700" letter-spacing="4.2" fill="#f9a8d4">STOP SCROLLING. START WATCHING.</text>
    <text x="0" y="306" font-family="Inter, Arial, sans-serif" font-size="48" font-weight="500" fill="#e5e8f2">Movies you both want to watch,</text>
    <text x="0" y="364" font-family="Inter, Arial, sans-serif" font-size="48" font-weight="500" fill="#e5e8f2">with ratings and where to stream.</text>
    <text x="0" y="458" font-family="Inter, Arial, sans-serif" font-size="28" font-weight="500" fill="#9ca3af">matchboxd.com</text>
  </g>
</svg>
